<svg width="800" height="120" xmlns="http://www.w3.org/2000/svg">
  <defs>
    <linearGradient id="starBg" x1="0%" y1="0%" x2="100%" y2="0%">
      <stop offset="0%" style="stop-color:#ff6b6b;stop-opacity:1" />
      <stop offset="25%" style="stop-color:#4ecdc4;stop-opacity:1" />
      <stop offset="50%" style="stop-color:#45b7d1;stop-opacity:1" />
      <stop offset="75%" style="stop-color:#f9ca24;stop-opacity:1" />
      <stop offset="100%" style="stop-color:#f0932b;stop-opacity:1" />
    </linearGradient>
    <filter id="starGlow" x="-50%" y="-50%" width="200%" height="200%">
      <feGaussianBlur stdDeviation="3" result="coloredBlur"/>
      <feMerge> 
        <feMergeNode in="coloredBlur"/>
        <feMergeNode in="SourceGraphic"/>
      </feMerge>
    </filter>
  </defs>
  
  <!-- Background -->
  <rect width="800" height="120" fill="url(#starBg)"/>
  
  <!-- Overlay for better text readability -->
  <rect width="800" height="120" fill="rgba(0,0,0,0.3)"/>
  
  <!-- Stars Animation -->
  <g filter="url(#starGlow)">
    <!-- Star 1 -->
    <g transform="translate(100, 30)">
      <path d="M 0 -10 L 3 -3 L 10 -3 L 5 2 L 7 9 L 0 5 L -7 9 L -5 2 L -10 -3 L -3 -3 Z" fill="#ffd700">
        <animateTransform attributeName="transform" type="rotate" values="0;360" dur="4s" repeatCount="indefinite"/>
      </path>
    </g>
    
    <!-- Star 2 -->
    <g transform="translate(200, 60)">
      <path d="M 0 -8 L 2.4 -2.4 L 8 -2.4 L 4 1.6 L 5.6 7.2 L 0 4 L -5.6 7.2 L -4 1.6 L -8 -2.4 L -2.4 -2.4 Z" fill="#ffd700">
        <animateTransform attributeName="transform" type="rotate" values="360;0" dur="3s" repeatCount="indefinite"/>
      </path>
    </g>
    
    <!-- Star 3 -->
    <g transform="translate(600, 25)">
      <path d="M 0 -12 L 3.6 -3.6 L 12 -3.6 L 6 2.4 L 8.4 10.8 L 0 6 L -8.4 10.8 L -6 2.4 L -12 -3.6 L -3.6 -3.6 Z" fill="#ffd700">
        <animateTransform attributeName="transform" type="rotate" values="0;360" dur="5s" repeatCount="indefinite"/>
      </path>
    </g>
    
    <!-- Star 4 -->
    <g transform="translate(700, 70)">
      <path d="M 0 -6 L 1.8 -1.8 L 6 -1.8 L 3 1.2 L 4.2 5.4 L 0 3 L -4.2 5.4 L -3 1.2 L -6 -1.8 L -1.8 -1.8 Z" fill="#ffd700">
        <animateTransform attributeName="transform" type="rotate" values="360;0" dur="2s" repeatCount="indefinite"/>
      </path>
    </g>
  </g>
  
  <!-- Main Text -->
  <text x="400" y="45" font-family="Arial, sans-serif" font-size="28" font-weight="bold" fill="white" text-anchor="middle" filter="url(#starGlow)">🌟 给我们一个 Star 吧！</text>
  
  <!-- Subtitle -->
  <text x="400" y="70" font-family="Arial, sans-serif" font-size="16" fill="white" text-anchor="middle">如果这个项目对你有帮助，请在 GitHub 上给我们一个 ⭐</text>
  
  <!-- Call to Action -->
  <rect x="300" y="80" width="200" height="30" rx="15" fill="rgba(255,255,255,0.2)" stroke="white" stroke-width="2"/>
  <text x="400" y="98" font-family="Arial, sans-serif" font-size="14" font-weight="bold" fill="white" text-anchor="middle">👆 点击前往 GitHub</text>
  
  <!-- Floating particles -->
  <g opacity="0.6">
    <circle cx="150" cy="80" r="2" fill="white">
      <animate attributeName="cy" values="80;40;80" dur="3s" repeatCount="indefinite"/>
      <animate attributeName="opacity" values="0.6;1;0.6" dur="3s" repeatCount="indefinite"/>
    </circle>
    <circle cx="650" cy="40" r="1.5" fill="white">
      <animate attributeName="cy" values="40;80;40" dur="4s" repeatCount="indefinite"/>
      <animate attributeName="opacity" values="0.6;1;0.6" dur="4s" repeatCount="indefinite"/>
    </circle>
    <circle cx="50" cy="60" r="1" fill="white">
      <animate attributeName="cy" values="60;20;60" dur="2.5s" repeatCount="indefinite"/>
      <animate attributeName="opacity" values="0.6;1;0.6" dur="2.5s" repeatCount="indefinite"/>
    </circle>
  </g>
</svg>